<?xml version="1.0" encoding="UTF-8" standalone="no"?>
<!DOCTYPE svg PUBLIC "-//W3C//DTD SVG 1.1//EN" "http://www.w3.org/Graphics/SVG/1.1/DTD/svg11.dtd">
<svg width="100%" height="100%" viewBox="0 0 1000 1049" version="1.1" xmlns="http://www.w3.org/2000/svg" xmlns:xlink="http://www.w3.org/1999/xlink" xml:space="preserve" xmlns:serif="http://www.serif.com/" style="fill-rule:evenodd;clip-rule:evenodd;stroke-linecap:round;stroke-linejoin:round;stroke-miterlimit:1.5;">
    <g transform="matrix(1,0,0,1,-405.602,-855.976)">
        <g transform="matrix(1,0,0,1,637.777,-16.2694)">
            <g transform="matrix(1,0,0,1,-798.634,0)">
                <path d="M1549.61,1099.35C1549.61,1015.46 1481.5,947.354 1397.61,947.354L1194.95,947.354C1111.06,947.354 1042.95,1015.46 1042.95,1099.35L1042.95,1566.15C1042.95,1650.04 1111.06,1718.14 1194.95,1718.14L1397.61,1718.14C1481.5,1718.14 1549.61,1650.04 1549.61,1566.15L1549.61,1099.35Z" style="fill:none;stroke:white;stroke-width:33.33px;"/>
            </g>
            <g transform="matrix(1,0,0,0.850837,11.9841,182.046)">
                <path d="M485.661,1065.11L485.661,1220.45" style="fill:none;stroke:white;stroke-width:35.9px;"/>
            </g>
            <g transform="matrix(1,0,0,1.62977,-480.419,-1757.09)">
                <g transform="matrix(1,-0,-0,0.613584,248.244,1613.32)">
                    <path d="M359.936,659.109L266.186,752.859L172.436,659.109" style="fill:none;stroke:white;stroke-width:41.67px;stroke-linejoin:miter;stroke-miterlimit:10;"/>
                    <path d="M266.186,266.186L266.186,752.859" style="fill:none;stroke:white;stroke-width:41.67px;"/>
                </g>
            </g>
        </g>
    </g>
</svg>
