
        <svg xmlns="http://www.w3.org/2000/svg" xmlns:xlink="http://www.w3.org/1999/xlink" version="1.1" width="3145.323180911154" 
        height="3179.4392523364486" viewBox="0 0 3145.323180911154 3179.4392523364486">
			
			<g transform="scale(8.971962616822431) translate(10, 10)">
				<defs id="SvgjsDefs30536"></defs><g id="SvgjsG30537" featureKey="rootContainer" transform="matrix(3.2171699061250147,0,0,3.2171699061250147,-0.11082709930723922,0.09256984840618826)" fill="#ffffff"><path xmlns="http://www.w3.org/2000/svg" d="M101.7 40.8A50.6 50.6 0 0 0 96.2 26a48.8 48.8 0 0 0-5.9-8.3l-1.8-2-.6-.7-.7-.6-2-1.8a48.8 48.8 0 0 0-8.3-5.9 50.6 50.6 0 0 0-14.8-5.6A51.7 51.7 0 0 0 41.6.9a52.3 52.3 0 0 0-11.2 3.6A51 51 0 0 0 6.7 26.4c-.6 1-1.1 2.1-1.6 3.1s-1 2.1-1.4 3.3A49.9 49.9 0 0 0 1.8 39c-.3 1.2-.6 2.3-.8 3.5a48.6 48.6 0 0 0 1.8 25.8 48 48 0 0 0 6.4 13.9 48.6 48.6 0 0 0 20.7 17.5L33 101l3.1 1a47.7 47.7 0 0 0 6.3 1.4 49.1 49.1 0 0 0 12.5.2 48.2 48.2 0 0 0 11.5-2.8 49.7 49.7 0 0 0 5.2-2.3l1.6-.7 3.1-1.6a50.6 50.6 0 0 0 5.8-3.7 52.1 52.1 0 0 0 9.5-9.2 51 51 0 0 0 6.6-10.7 52.3 52.3 0 0 0 3.6-11.2 51.7 51.7 0 0 0-.1-20.6zm-29.3 57l-2.4 1A51 51 0 0 1 19.7 91a47.9 47.9 0 0 0 8.1 4.8 48 48 0 0 0 14.6 5.5 48.6 48.6 0 0 0 27-2.3l3.1-1.3 2.5-1.3zM3.3 69.1l-.5-1.9a51.5 51.5 0 0 0 5.5 11.5c-.7-1.1-1.4-2.2-2-3.3s-1-1.9-1.5-2.9-.9-2-1.3-3zm14.6 18.8A48.1 48.1 0 0 1 7 36.5c.4-1 .9-2 1.3-3s.9-2 1.5-2.9a47.6 47.6 0 0 1 3.5-5.4 49.9 49.9 0 0 1 8.7-9l1.7-1.3a47.1 47.1 0 0 1 6.3-3.4l3.1-1.2 3.1-1a47.6 47.6 0 0 1 6.3-1.4 49.8 49.8 0 0 1 12.4-.2 48 48 0 0 1 11.5 2.7 49 49 0 0 1 9.8 5 48.6 48.6 0 0 1 13.6 13.7 47.1 47.1 0 0 1 4.5 8.6 47.7 47.7 0 0 1 1.3 24.2 47.6 47.6 0 0 1-5.2 13.9 45.9 45.9 0 0 1-5.5 7.8l-1.7 1.9-.6.6-.6.6-2 1.8a46 46 0 0 1-7.8 5.5 47.6 47.6 0 0 1-13.9 5.2 48.7 48.7 0 0 1-19.2.1 49.3 49.3 0 0 1-9.8-3.1 47.9 47.9 0 0 1-11.4-8.3zm-4.9-63a48 48 0 0 0-3.5 5.5c-.6.9-1 2-1.5 2.9s-.9 2-1.3 3.1a48.5 48.5 0 0 0 11 51.7 48.1 48.1 0 0 0 8.3 6.6 49.7 49.7 0 0 1-7.5-4.9L16.3 88l-.7-.7a50.9 50.9 0 0 1-13.7-25 47.2 47.2 0 0 1-.5-6.8 48 48 0 0 1 17-36.7 51.2 51.2 0 0 0-5.4 6.1zM75.2 96l-2.9 1.5-3 1.3a48.3 48.3 0 0 1-26.9 2.2 47.4 47.4 0 0 1-11.3-3.8 49.5 49.5 0 0 0 7.9 2.3 48.8 48.8 0 0 0 19.3-.1 47.8 47.8 0 0 0 13.9-5.3 46.1 46.1 0 0 0 7.8-5.6l1.9-1.7.6-.6.6-.6 1.7-1.9a46.1 46.1 0 0 0 5.6-7.8A47.8 47.8 0 0 0 95.7 62a48.9 48.9 0 0 0 .1-19.3l-.3-1.5.4 1.5a46 46 0 0 1 1.6 9.5c.1 1.1.1 2 .1 2.5v1.7c0 .6 0 1.4-.1 2.5a45.9 45.9 0 0 1-1.5 9.4 47.7 47.7 0 0 1-6.2 13.6 48.8 48.8 0 0 1-11.4 12.2zm14.7-14A47.7 47.7 0 0 0 96 68.4a46 46 0 0 0 1.6-9.5c.1-1.1.1-2 .1-2.5v-1.8c0-.6 0-1.4-.1-2.5a46 46 0 0 0-1.6-9.5l-.8-2.7a49.5 49.5 0 0 0-2.7-7.8 48.4 48.4 0 0 0-15.2-18.9l-2.7-1.9 1 .6a46 46 0 0 1 7.8 5.5l1.9 1.7.6.6.6.6 1.7 1.9a46 46 0 0 1 5.5 7.8 47.7 47.7 0 0 1 5.4 14 48.7 48.7 0 0 1 .1 19.2 49.3 49.3 0 0 1-3.4 10.5 48 48 0 0 1-6.2 10.1 49.1 49.1 0 0 1-9 8.7l-.6.4a48.9 48.9 0 0 0 9.9-11zM71.7 10a47.4 47.4 0 0 1 5.4 3.5 49.8 49.8 0 0 1 8.9 8.7 47.9 47.9 0 0 1 6.2 10l1.5 3.6A47 47 0 0 0 90 29a48.8 48.8 0 0 0-13.6-13.8 49.5 49.5 0 0 0-9.9-5.1 48.4 48.4 0 0 0-24.1-2.6A47.8 47.8 0 0 0 36 8.9l-3.1 1-3.1 1.3-1.1.5L32 10a49.1 49.1 0 0 1 10.5-3.4 48.6 48.6 0 0 1 19.2 0 46.8 46.8 0 0 1 8.6 2.6zm-9.9-3.5a48.9 48.9 0 0 0-19.3-.1 49.5 49.5 0 0 0-10.6 3.3 47.2 47.2 0 0 0-8.2 4.7 48.4 48.4 0 0 0-22.6 41c0 .9 0 1.8.1 2.8a51.3 51.3 0 0 1 1.6-21.5A48.1 48.1 0 0 1 65.7 7.2l3 1.3h.2a47.1 47.1 0 0 0-7.1-2zM.3 49.4a51.1 51.1 0 0 0 1 12l.3 1.5.4 2.2A48.6 48.6 0 0 1 .3 49.4zm66.1 51.2a48.1 48.1 0 0 1-11.4 2.7 49.1 49.1 0 0 1-12.5-.2 47.5 47.5 0 0 1-6.3-1.4l-3.1-1-3.1-1.2A48.3 48.3 0 0 1 9.4 82.1a47.2 47.2 0 0 1-5-9.9l.2.4c.5 1 1 2 1.5 2.9A47.8 47.8 0 0 0 9.6 81a52.7 52.7 0 0 0 3.6 4.2l2.2 2.3a51.3 51.3 0 0 0 54.3 11.7zm35.3-39.4a52.2 52.2 0 0 1-3.6 11.1A51 51 0 0 1 91.6 83a52.1 52.1 0 0 1-9.5 9.2 50.7 50.7 0 0 1-5.8 3.7l-2 1 2-1.3.7-.5 3.7-2.5a49.1 49.1 0 0 0 9-8.7 48.2 48.2 0 0 0 6.2-10.1 49.4 49.4 0 0 0 3.4-10.6 48.8 48.8 0 0 0-.1-19.2 47.8 47.8 0 0 0-5.3-14 46.1 46.1 0 0 0-5.6-7.8l-1.7-1.9-.6-.6-.6-.6-1.9-1.7a46 46 0 0 0-7.8-5.6l-2.2-1.2-1.6-.9-3-1.5-3.1-1.3A48.4 48.4 0 0 0 5.3 30v-.3c.5-1 1-2.1 1.6-3.1a50.4 50.4 0 0 1 3.7-5.7 52.8 52.8 0 0 1 9.2-9.5 50.9 50.9 0 0 1 10.7-6.6 52.1 52.1 0 0 1 11.2-3.6 51.5 51.5 0 0 1 20.3.1 50.4 50.4 0 0 1 14.8 5.5 48.7 48.7 0 0 1 8.3 5.9l2 1.8.7.6.6.7 1.8 2a48.6 48.6 0 0 1 5.9 8.3 50.5 50.5 0 0 1 5.5 14.8 51.5 51.5 0 0 1 .1 20.3z"></path></g><g id="SvgjsG30538" featureKey="v37d4h-0" transform="matrix(1.2386114476965862,0,0,1.2386114476965862,104.25318737716664,62.030697855284444)" fill="#fa798e"><path xmlns="http://www.w3.org/2000/svg" fill-rule="evenodd" clip-rule="evenodd" d="M50.572,94.308h-1.833c-0.584-2.801-1.072-5.556-1.749-8.264  c-0.623-2.49-1.677-4.825-3.248-6.888c-2.489-3.269-5.729-4.412-9.801-3.745c-2.208,0.361-4.52,0.49-6.743,0.275  c-3.15-0.305-4.459-2.356-3.92-5.477c0.043-0.248,0.075-0.505,0.164-0.737c0.803-2.094,0.273-3.877-1.257-5.422  c-0.755-0.763-0.539-1.604-0.159-2.398c0.342-0.717,0.354-1.274-0.315-1.787c-0.982-0.752-1.015-1.712-0.639-2.81  c0.421-1.229,0.248-1.497-1.001-1.837c-0.694-0.189-1.408-0.312-2.091-0.534c-1.066-0.346-1.468-1.013-1.092-2.077  c0.294-0.833,0.717-1.669,1.268-2.355c4.423-5.488,6.245-11.795,6.194-18.771c-0.028-3.843,0.641-7.597,2.128-11.17  c2.508-6.024,6.923-9.836,13.33-11.132c8.018-1.624,16.031-1.575,23.95,0.651c4.546,1.278,8.625,3.424,11.852,6.967  c4.017,4.408,5.519,9.761,5.709,15.567c0.246,7.562-1.843,14.504-5.767,20.919c-2.141,3.498-3.606,7.274-4.755,11.187  c-0.726,2.472-2.113,4.473-4.157,6.02c-2.251,1.703-4.806,2.046-7.486,1.48c-2.077-0.438-3.592-1.765-4.381-3.682  c-0.813-1.978-1.341-4.071-2.04-6.257c-0.143-0.011-0.619,0.09-0.901-0.098c-0.419-0.28-0.896-0.723-0.993-1.173  c-0.144-0.663,0.308-1.197,1.045-1.218c1.439-0.04,2.881-0.032,4.32-0.008c0.727,0.015,1.129,0.458,1.152,1.171  c0.025,0.771-0.391,1.204-1.164,1.271c-0.354,0.03-0.71,0.038-1.057,0.055c-0.41,3.731,2.199,7.528,5.438,7.979  c3.385,0.472,6.048-0.854,7.605-3.889c0.589-1.147,1.122-2.348,1.479-3.582c1.134-3.9,2.965-7.471,4.879-11.025  c3.173-5.895,4.908-12.186,4.882-18.922C79.396,26.262,76.927,21.099,72.116,17c-3.877-3.303-8.281-5.389-13.328-6.19  c-5.48-0.87-10.95-1.126-16.438-0.139c-8.561,1.539-13.71,6.588-15.204,15.17c-0.491,2.824-0.586,5.72-0.817,8.587  c-0.435,5.397-2.221,10.306-5.258,14.774c-0.486,0.713-0.984,1.422-1.426,2.163c-0.64,1.07-0.45,1.592,0.717,2.083  c0.496,0.21,1.016,0.365,1.51,0.581c1.116,0.488,1.348,0.96,1.07,2.123c-0.1,0.419-0.236,0.83-0.338,1.249  c-0.179,0.732-0.039,1.35,0.645,1.779c0.912,0.572,1.094,1.367,0.678,2.331c-0.31,0.724-0.242,1.347,0.306,1.982  c1.596,1.855,1.485,4.034,1.068,6.25c-0.06,0.318-0.135,0.634-0.187,0.953c-0.277,1.69,0.358,2.88,2.052,3.046  c1.908,0.187,3.857-0.018,5.787-0.081c1.648-0.054,3.319-0.358,4.939-0.181c3.671,0.399,6.427,2.362,8.291,5.545  c2.108,3.597,3.061,7.582,3.828,11.623C50.231,91.812,50.373,92.99,50.572,94.308"></path><path xmlns="http://www.w3.org/2000/svg" d="M56.769,30.008l-0.428-1.5l1.542-2.313l-2.014-2.614l-2.442,0.857l-1.285-0.857l-0.686-2.571l-3.128-0.385l-1.113,2.185  l-1.543,0.471l-2.185-1.5l-2.699,1.928l0.985,2.399l-0.857,1.371l-2.57,0.471l-0.471,3.342l2.528,1.199l0.128,1.585l-1.414,2.142  l1.971,2.656l2.699-0.857l1.071,0.857l0.6,2.442l3.256,0.557l1.07-2.271l1.543-0.385l2.228,1.371l2.57-1.928l-0.857-2.656  l0.857-1.286l2.528-0.385l0.471-3.171L56.769,30.008z M48.528,35.306c-2.287,0-4.142-1.854-4.142-4.142  c0-2.287,1.854-4.141,4.142-4.141s4.142,1.854,4.142,4.141C52.67,33.452,50.815,35.306,48.528,35.306z"></path><path xmlns="http://www.w3.org/2000/svg" d="M72.769,43.008l-0.428-1.5l1.542-2.313l-2.014-2.614l-2.442,0.857l-1.285-0.857l-0.686-2.571l-3.128-0.385l-1.113,2.185  l-1.543,0.471l-2.185-1.5l-2.698,1.928l0.984,2.399l-0.857,1.371l-2.57,0.471l-0.471,3.342l2.527,1.199l0.129,1.585l-1.414,2.142  l1.971,2.656l2.699-0.856l1.071,0.856l0.601,2.442l3.256,0.557l1.07-2.271l1.543-0.385l2.228,1.371l2.57-1.928l-0.857-2.656  l0.857-1.286l2.528-0.385l0.471-3.171L72.769,43.008z M64.528,48.306c-2.287,0-4.142-1.854-4.142-4.142  c0-2.287,1.854-4.141,4.142-4.141s4.142,1.854,4.142,4.141C68.67,46.452,66.815,48.306,64.528,48.306z"></path><path xmlns="http://www.w3.org/2000/svg" d="M54.004,49.579l-0.317-1.111l1.143-1.714l-1.492-1.938l-1.811,0.635l-0.952-0.635l-0.508-1.905l-2.318-0.286l-0.826,1.62  l-1.143,0.349l-1.619-1.111l-2,1.429l0.73,1.778l-0.636,1.016l-1.905,0.35L40,50.532l1.873,0.889l0.096,1.175l-1.048,1.588  l1.46,1.969l2-0.635l0.794,0.635l0.445,1.811l2.413,0.412l0.794-1.684l1.143-0.285l1.651,1.017l1.905-1.429l-0.636-1.969  l0.636-0.953l1.874-0.285l0.349-2.351L54.004,49.579z M47.896,53.506c-1.696,0-3.07-1.374-3.07-3.069s1.375-3.069,3.07-3.069  c1.695,0,3.069,1.374,3.069,3.069S49.592,53.506,47.896,53.506z"></path></g><g id="SvgjsG30539" featureKey="UxBHKT-0" transform="matrix(3.490401264939624,0,0,3.490401264939624,79.72076982945434,169.12914592295385)" fill="#21b59c"><path d="M10.86 20 l-3.02 0 l-2.38 -3.22 l-2.38 3.22 l-3 0 l3.78 -5.12 l-3.62 -5 l3 0 l2.22 3.06 l2.24 -3.06 l2.98 0 l-3.6 5 z M17.695 9.6 c2.64 0 3.98 1.78 3.98 4.48 l0 5.92 l-2.64 0 l0 -5.42 c0 -1.54 -0.7 -2.52 -2.16 -2.52 c-1.48 0 -2.44 1.16 -2.44 2.94 l0 5 l-2.64 0 l0 -14.6 l2.64 0 l0 5.76 c0.7 -0.9 1.8 -1.56 3.26 -1.56 z M35.85 9.6 c2.42 0 4 1.56 4 4.38 l0 6.02 l-2.64 0 l0 -5.46 c0 -1.52 -0.56 -2.48 -1.94 -2.48 c-1.42 0 -2.14 1.06 -2.14 2.78 l0 5.16 l-2.66 0 l0 -5.46 c0 -1.5 -0.54 -2.48 -1.9 -2.48 c-1.42 0 -2.18 1.08 -2.18 2.86 l0 5.08 l-2.64 0 l0 -10.12 l2.64 0 l0 1.2 c0.66 -0.86 1.66 -1.48 3 -1.48 c1.42 0 2.42 0.56 3.04 1.52 c0.66 -0.84 1.8 -1.52 3.42 -1.52 z M45.585 8.96 l0 0.92 l3.06 0 l0 2.32 l-3.06 0 l0 7.8 l-2.64 0 l0 -7.8 l-1.94 0 l0 -2.32 l1.94 0 l0 -0.92 c0 -2.34 1.2 -3.84 3.56 -3.84 c0.88 0 1.6 0.12 2.28 0.44 l-0.64 2.12 c-0.42 -0.18 -0.76 -0.26 -1.26 -0.26 c-0.84 0 -1.3 0.58 -1.3 1.54 z"></path></g><g id="SvgjsG30540" featureKey="sloganFeature-0" transform="matrix(0.46347116709453867,0,0,0.46347116709453867,82.63849266867648,244.8587632610633)" fill="#ffffff"><path d="M5.08 16.08 q0 0.7 0.24 1.17 t1.12 0.47 q0.4 0 0.76 -0.04 l0 2.52 q-0.72 0.08 -1.34 0.08 q-1.28 0 -2.07 -0.21 t-1.23 -0.81 t-0.44 -1.72 l0 -6.1 l-1.34 0 l0 -2.62 l1.34 0 l0 -2.94 l2.96 0 l0 2.94 l2.2 0 l0 2.62 l-2.2 0 l0 4.64 z M18.83 10.02 q1.03 1.22 1.03 3.48 l0 6.5 l-3.04 0 l0 -6.5 q0 -1.18 -0.59 -1.7 t-1.55 -0.52 q-0.82 0 -1.48 0.65 t-0.62 2.25 l0 5.82 l-2.98 0 l0 -15.14 l2.98 0 l0 5.12 q0.54 -0.54 1.36 -0.86 t1.58 -0.32 q2.28 0 3.31 1.22 z M25.59 19.74 q-1.37 -0.54 -2.35 -1.83 t-0.98 -3.37 t0.99 -3.36 t2.37 -1.82 t2.62 -0.54 q1.44 0 2.74 0.64 t2.13 1.88 t0.87 2.94 q0 0.52 -0.02 0.9 t-0.04 0.48 l-8.68 0 q0.24 1.16 1.2 1.58 t1.8 0.42 q1.08 0 1.72 -0.39 t1.1 -0.89 l2.32 1.34 q-1.88 2.56 -5.14 2.56 q-1.28 0 -2.65 -0.54 z M26.2 12.05 q-0.78 0.61 -0.88 1.49 l5.5 0 q-0.06 -0.52 -0.4 -1 t-0.91 -0.79 t-1.29 -0.31 q-1.24 0 -2.02 0.61 z M47.17999999999999 16.740000000000002 l-2.3 3.26 l-3.74 0 l4.14 -5.44 l-4.2 -5.52 l3.72 0 l2.38 3.38 l2.34 -3.38 l3.76 0 l-4.26 5.52 l4.16 5.44 l-3.76 0 z M64.16999999999999 10.02 q1.03 1.22 1.03 3.48 l0 6.5 l-3.04 0 l0 -6.5 q0 -1.18 -0.59 -1.7 t-1.55 -0.52 q-0.82 0 -1.48 0.65 t-0.62 2.25 l0 5.82 l-2.98 0 l0 -15.14 l2.98 0 l0 5.12 q0.54 -0.54 1.36 -0.86 t1.58 -0.32 q2.28 0 3.31 1.22 z M70.92999999999999 19.74 q-1.37 -0.54 -2.35 -1.83 t-0.98 -3.37 t0.99 -3.36 t2.37 -1.82 t2.62 -0.54 q1.44 0 2.74 0.64 t2.13 1.88 t0.87 2.94 q0 0.52 -0.02 0.9 t-0.04 0.48 l-8.68 0 q0.24 1.16 1.2 1.58 t1.8 0.42 q1.08 0 1.72 -0.39 t1.1 -0.89 l2.32 1.34 q-1.88 2.56 -5.14 2.56 q-1.28 0 -2.65 -0.54 z M71.53999999999999 12.05 q-0.78 0.61 -0.88 1.49 l5.5 0 q-0.06 -0.52 -0.4 -1 t-0.91 -0.79 t-1.29 -0.31 q-1.24 0 -2.02 0.61 z M81.76 4.880000000000001 l3 0 l0 15.12 l-3 0 l0 -15.12 z M95.96 18.9 q-0.38 0.52 -1.31 0.93 t-2.03 0.41 q-1.7 0 -2.95 -0.76 t-1.91 -2.07 t-0.66 -2.91 t0.66 -2.91 t1.91 -2.07 t2.95 -0.76 q1.14 0 2.01 0.39 t1.33 0.99 l0 -1.14 l2.96 0 l0 11 l-2.96 0 l0 -1.1 z M95.25999999999999 12.25 q-0.82 -0.87 -2.2 -0.87 q-1.4 0 -2.21 0.87 t-0.81 2.25 q0 1.34 0.83 2.22 t2.19 0.88 q1.4 0 2.21 -0.83 t0.81 -2.27 q0 -1.38 -0.82 -2.25 z M110.22 18.9 q-0.38 0.52 -1.31 0.93 t-2.03 0.41 q-1.7 0 -2.95 -0.76 t-1.91 -2.07 t-0.66 -2.91 t0.66 -2.91 t1.91 -2.07 t2.95 -0.76 q1.14 0 2.01 0.39 t1.33 0.99 l0 -5.26 l2.96 0 l0 15.12 l-2.96 0 l0 -1.1 z M109.52 12.25 q-0.82 -0.87 -2.2 -0.87 q-1.4 0 -2.21 0.87 t-0.81 2.25 q0 1.34 0.83 2.22 t2.19 0.88 q1.4 0 2.21 -0.83 t0.81 -2.27 q0 -1.38 -0.82 -2.25 z M118.94 7.369999999999999 q-0.48 0.47 -1.16 0.47 q-0.7 0 -1.19 -0.47 t-0.49 -1.15 q0 -0.66 0.49 -1.13 t1.19 -0.47 q0.68 0 1.16 0.47 t0.48 1.13 q0 0.68 -0.48 1.15 z M116.28 9.02 l3 0 l0 10.98 l-3 0 l0 -10.98 z M131.45 10.02 q1.03 1.22 1.03 3.48 l0 6.5 l-3.06 0 l0 -6.5 q0 -2.22 -2.12 -2.22 q-0.82 0 -1.48 0.65 t-0.62 2.25 l0 5.82 l-2.98 0 l0 -11 l2.98 0 l0 0.98 q0.54 -0.54 1.36 -0.86 t1.58 -0.32 q2.28 0 3.31 1.22 z M149.74 18.9 q-0.38 0.52 -1.31 0.93 t-2.03 0.41 q-1.7 0 -2.95 -0.76 t-1.91 -2.07 t-0.66 -2.91 t0.66 -2.91 t1.91 -2.07 t2.95 -0.76 q1.14 0 2.01 0.39 t1.33 0.99 l0 -1.14 l2.96 0 l0 11 l-2.96 0 l0 -1.1 z M149.04000000000002 12.25 q-0.82 -0.87 -2.2 -0.87 q-1.4 0 -2.21 0.87 t-0.81 2.25 q0 1.34 0.83 2.22 t2.19 0.88 q1.4 0 2.21 -0.83 t0.81 -2.27 q0 -1.38 -0.82 -2.25 z M164.87 10.02 q1.03 1.22 1.03 3.48 l0 6.5 l-3.06 0 l0 -6.5 q0 -2.22 -2.12 -2.22 q-0.82 0 -1.48 0.65 t-0.62 2.25 l0 5.82 l-2.98 0 l0 -11 l2.98 0 l0 0.98 q0.54 -0.54 1.36 -0.86 t1.58 -0.32 q2.28 0 3.31 1.22 z M177.16 18.9 q-0.38 0.52 -1.31 0.93 t-2.03 0.41 q-1.7 0 -2.95 -0.76 t-1.91 -2.07 t-0.66 -2.91 t0.66 -2.91 t1.91 -2.07 t2.95 -0.76 q1.14 0 2.01 0.39 t1.33 0.99 l0 -5.26 l2.96 0 l0 15.12 l-2.96 0 l0 -1.1 z M176.46 12.25 q-0.82 -0.87 -2.2 -0.87 q-1.4 0 -2.21 0.87 t-0.81 2.25 q0 1.34 0.83 2.22 t2.19 0.88 q1.4 0 2.21 -0.83 t0.81 -2.27 q0 -1.38 -0.82 -2.25 z M193.85999999999999 16.740000000000002 l-2.3 3.26 l-3.74 0 l4.14 -5.44 l-4.2 -5.52 l3.72 0 l2.38 3.38 l2.34 -3.38 l3.76 0 l-4.26 5.52 l4.16 5.44 l-3.76 0 z M210.85 10.02 q1.03 1.22 1.03 3.48 l0 6.5 l-3.04 0 l0 -6.5 q0 -1.18 -0.59 -1.7 t-1.55 -0.52 q-0.82 0 -1.48 0.65 t-0.62 2.25 l0 5.82 l-2.98 0 l0 -15.14 l2.98 0 l0 5.12 q0.54 -0.54 1.36 -0.86 t1.58 -0.32 q2.28 0 3.31 1.22 z M214.78 15.54 l0 -6.5 l3.02 0 l0 6.5 q0 1.18 0.59 1.69 t1.55 0.51 q0.84 0 1.5 -0.65 t0.6 -2.23 l0 -5.82 l3 0 l0 10.96 l-3 0 l0 -0.94 q-0.54 0.56 -1.31 0.87 t-1.63 0.31 q-4.32 0 -4.32 -4.7 z M231.45999999999998 20 l-3 0 l0 -8.26 l-1.24 0 l0 -2.56 l1.24 0 q0.08 -2.14 1.22 -3.26 t3.16 -1.12 q0.6 0 1.32 0.18 l-0.16 2.42 q-0.38 -0.12 -0.82 -0.12 q-1.08 0 -1.4 0.54 t-0.32 1.36 l1.98 0 l0 2.56 l-1.98 0 l0 8.26 z M238.37 19.74 q-1.37 -0.54 -2.35 -1.83 t-0.98 -3.37 t0.99 -3.36 t2.37 -1.82 t2.62 -0.54 q1.44 0 2.74 0.64 t2.13 1.88 t0.87 2.94 q0 0.52 -0.02 0.9 t-0.04 0.48 l-8.68 0 q0.24 1.16 1.2 1.58 t1.8 0.42 q1.08 0 1.72 -0.39 t1.1 -0.89 l2.32 1.34 q-1.88 2.56 -5.14 2.56 q-1.28 0 -2.65 -0.54 z M238.98000000000002 12.05 q-0.78 0.61 -0.88 1.49 l5.5 0 q-0.06 -0.52 -0.4 -1 t-0.91 -0.79 t-1.29 -0.31 q-1.24 0 -2.02 0.61 z M271.59000000000003 10.04 q1.13 1.24 1.13 3.46 l0 6.5 l-3.02 0 l0 -6.5 q0 -1.18 -0.59 -1.7 t-1.55 -0.52 q-0.8 0 -1.44 0.6 t-0.66 2 l0 6.12 l-3.02 0 l0 -6.5 q0 -1.18 -0.59 -1.7 t-1.53 -0.52 q-0.86 0 -1.49 0.64 t-0.63 2.26 l-0.02 5.82 l-2.98 0 l0 -11 l2.98 0 l0 1 q0.58 -0.52 1.4 -0.86 t1.5 -0.34 q2.32 0 3.54 1.5 q0.62 -0.7 1.54 -1.1 t2 -0.4 q2.3 0 3.43 1.24 z M278.27 19.49 q-1.37 -0.77 -2.17 -2.09 t-0.8 -2.88 q0 -1.54 0.8 -2.86 t2.17 -2.09 t2.99 -0.77 t3 0.77 t2.19 2.09 t0.81 2.86 q0 1.56 -0.81 2.88 t-2.19 2.09 t-3 0.77 t-2.99 -0.77 z M279.74 11.83 q-0.7 0.41 -1.1 1.12 t-0.4 1.57 q0 0.9 0.39 1.61 t1.08 1.12 t1.55 0.41 q0.84 0 1.53 -0.41 t1.09 -1.13 t0.4 -1.6 q0 -0.86 -0.4 -1.57 t-1.09 -1.12 t-1.53 -0.41 q-0.82 0 -1.52 0.41 z M294.94 11.87 q-0.86 0.21 -1.58 0.99 t-0.72 2.28 l0 4.86 l-2.98 0 l0 -11 l2.98 0 l0 1.46 q0.74 -0.98 1.81 -1.33 t1.95 -0.33 l0 2.92 q-0.6 -0.06 -1.46 0.15 z M300.98 7.369999999999999 q-0.48 0.47 -1.16 0.47 q-0.7 0 -1.19 -0.47 t-0.49 -1.15 q0 -0.66 0.49 -1.13 t1.19 -0.47 q0.68 0 1.16 0.47 t0.48 1.13 q0 0.68 -0.48 1.15 z M298.32 9.02 l3 0 l0 10.98 l-3 0 l0 -10.98 z M313.49 10.02 q1.03 1.22 1.03 3.48 l0 6.5 l-3.06 0 l0 -6.5 q0 -2.22 -2.12 -2.22 q-0.82 0 -1.48 0.65 t-0.62 2.25 l0 5.82 l-2.98 0 l0 -11 l2.98 0 l0 0.98 q0.54 -0.54 1.36 -0.86 t1.58 -0.32 q2.28 0 3.31 1.22 z M325.7800000000001 18.9 q-0.38 0.52 -1.31 0.93 t-2.03 0.41 q-1.7 0 -2.95 -0.76 t-1.91 -2.07 t-0.66 -2.91 t0.66 -2.91 t1.91 -2.07 t2.95 -0.76 q1.14 0 2.01 0.39 t1.33 0.99 l0 -1.14 l2.96 0 l0 11 l-2.96 0 l0 -1.1 z M325.08000000000004 12.25 q-0.82 -0.87 -2.2 -0.87 q-1.4 0 -2.21 0.87 t-0.81 2.25 q0 1.34 0.83 2.22 t2.19 0.88 q1.4 0 2.21 -0.83 t0.81 -2.27 q0 -1.38 -0.82 -2.25 z"></path></g><g id="SvgjsG30541" featureKey="sloganFeature-1" transform="matrix(0.46347116709453867,0,0,0.46347116709453867,131.70337840443943,261.8587632610633)" fill="#ffffff"><path d="M4.88 20 l-3 0 l0 -8.26 l-1.24 0 l0 -2.56 l1.24 0 q0.08 -2.14 1.22 -3.26 t3.16 -1.12 q0.6 0 1.32 0.18 l-0.16 2.42 q-0.38 -0.12 -0.82 -0.12 q-1.08 0 -1.4 0.54 t-0.32 1.36 l1.98 0 l0 2.56 l-1.98 0 l0 8.26 z M11.21 19.49 q-1.37 -0.77 -2.17 -2.09 t-0.8 -2.88 q0 -1.54 0.8 -2.86 t2.17 -2.09 t2.99 -0.77 t3 0.77 t2.19 2.09 t0.81 2.86 q0 1.56 -0.81 2.88 t-2.19 2.09 t-3 0.77 t-2.99 -0.77 z M12.68 11.83 q-0.7 0.41 -1.1 1.12 t-0.4 1.57 q0 0.9 0.39 1.61 t1.08 1.12 t1.55 0.41 q0.84 0 1.53 -0.41 t1.09 -1.13 t0.4 -1.6 q0 -0.86 -0.4 -1.57 t-1.09 -1.12 t-1.53 -0.41 q-0.82 0 -1.52 0.41 z M22.42 15.54 l0 -6.5 l3.02 0 l0 6.5 q0 1.18 0.59 1.69 t1.55 0.51 q0.84 0 1.5 -0.65 t0.6 -2.23 l0 -5.82 l3 0 l0 10.96 l-3 0 l0 -0.94 q-0.54 0.56 -1.31 0.87 t-1.63 0.31 q-4.32 0 -4.32 -4.7 z M44.81 10.02 q1.03 1.22 1.03 3.48 l0 6.5 l-3.06 0 l0 -6.5 q0 -2.22 -2.12 -2.22 q-0.82 0 -1.48 0.65 t-0.62 2.25 l0 5.82 l-2.98 0 l0 -11 l2.98 0 l0 0.98 q0.54 -0.54 1.36 -0.86 t1.58 -0.32 q2.28 0 3.31 1.22 z M57.099999999999994 18.9 q-0.38 0.52 -1.31 0.93 t-2.03 0.41 q-1.7 0 -2.95 -0.76 t-1.91 -2.07 t-0.66 -2.91 t0.66 -2.91 t1.91 -2.07 t2.95 -0.76 q1.14 0 2.01 0.39 t1.33 0.99 l0 -5.26 l2.96 0 l0 15.12 l-2.96 0 l0 -1.1 z M56.39999999999999 12.25 q-0.82 -0.87 -2.2 -0.87 q-1.4 0 -2.21 0.87 t-0.81 2.25 q0 1.34 0.83 2.22 t2.19 0.88 q1.4 0 2.21 -0.83 t0.81 -2.27 q0 -1.38 -0.82 -2.25 z M71.36 18.9 q-0.38 0.52 -1.31 0.93 t-2.03 0.41 q-1.7 0 -2.95 -0.76 t-1.91 -2.07 t-0.66 -2.91 t0.66 -2.91 t1.91 -2.07 t2.95 -0.76 q1.14 0 2.01 0.39 t1.33 0.99 l0 -1.14 l2.96 0 l0 11 l-2.96 0 l0 -1.1 z M70.66 12.25 q-0.82 -0.87 -2.2 -0.87 q-1.4 0 -2.21 0.87 t-0.81 2.25 q0 1.34 0.83 2.22 t2.19 0.88 q1.4 0 2.21 -0.83 t0.81 -2.27 q0 -1.38 -0.82 -2.25 z M80.97999999999999 16.08 q0 0.7 0.24 1.17 t1.12 0.47 q0.4 0 0.76 -0.04 l0 2.52 q-0.72 0.08 -1.34 0.08 q-1.28 0 -2.07 -0.21 t-1.23 -0.81 t-0.44 -1.72 l0 -6.1 l-1.34 0 l0 -2.62 l1.34 0 l0 -2.94 l2.96 0 l0 2.94 l2.2 0 l0 2.62 l-2.2 0 l0 4.64 z M88.28 7.369999999999999 q-0.48 0.47 -1.16 0.47 q-0.7 0 -1.19 -0.47 t-0.49 -1.15 q0 -0.66 0.49 -1.13 t1.19 -0.47 q0.68 0 1.16 0.47 t0.48 1.13 q0 0.68 -0.48 1.15 z M85.61999999999999 9.02 l3 0 l0 10.98 l-3 0 l0 -10.98 z M94.02999999999999 19.49 q-1.37 -0.77 -2.17 -2.09 t-0.8 -2.88 q0 -1.54 0.8 -2.86 t2.17 -2.09 t2.99 -0.77 t3 0.77 t2.19 2.09 t0.81 2.86 q0 1.56 -0.81 2.88 t-2.19 2.09 t-3 0.77 t-2.99 -0.77 z M95.49999999999999 11.83 q-0.7 0.41 -1.1 1.12 t-0.4 1.57 q0 0.9 0.39 1.61 t1.08 1.12 t1.55 0.41 q0.84 0 1.53 -0.41 t1.09 -1.13 t0.4 -1.6 q0 -0.86 -0.4 -1.57 t-1.09 -1.12 t-1.53 -0.41 q-0.82 0 -1.52 0.41 z M114.66999999999999 10.02 q1.03 1.22 1.03 3.48 l0 6.5 l-3.06 0 l0 -6.5 q0 -2.22 -2.12 -2.22 q-0.82 0 -1.48 0.65 t-0.62 2.25 l0 5.82 l-2.98 0 l0 -11 l2.98 0 l0 0.98 q0.54 -0.54 1.36 -0.86 t1.58 -0.32 q2.28 0 3.31 1.22 z"></path></g>
			</g>
		</svg>
	