<?xml version="1.0" encoding="UTF-8"?><svg id="Layer_1" xmlns="http://www.w3.org/2000/svg" viewBox="0 0 1200 283.37"><defs><style>.cls-1{fill-rule:evenodd;}</style></defs><path class="cls-1" d="M138.61,283.37c6.85,0,12.39-5.59,12.39-12.48s-5.54-12.48-12.39-12.48-12.39,5.59-12.39,12.48,5.54,12.48,12.39,12.48Zm42.47-67.73c7.02,0,12.72,5.74,12.72,12.81s-5.68,12.81-12.72,12.81-12.72-5.73-12.72-12.81,5.7-12.81,12.72-12.81Zm42.47,19.45c8.79,0,8.79-13.28,0-13.28s-8.79,13.28,0,13.28Zm42.47-63.38c7.86,0,14.22,6.41,14.22,14.33s-6.37,14.31-14.22,14.31-14.22-6.4-14.22-14.31,6.37-14.33,14.22-14.33Zm-14.75-28.1c0,8.21,6.6,14.86,14.75,14.86s14.75-6.66,14.75-14.86-6.6-14.86-14.75-14.86-14.75,6.65-14.75,14.86Zm5.02-42.42c0-5.42,4.36-9.81,9.74-9.81,5.39,0,9.74,4.39,9.74,9.81s-4.36,9.81-9.74,9.81-9.74-4.39-9.74-9.81Zm9.74-50.8c-11.09,0-11.09,16.74,0,16.74s11.09-16.74,0-16.74Zm-42.47-25.35c4.78,0,8.65-3.9,8.65-8.71s-3.88-8.71-8.65-8.71-8.65,3.9-8.65,8.71,3.87,8.71,8.65,8.71Zm0,26.26c-9.88,0-9.88,14.92,0,14.92s9.87-14.92,0-14.92Zm-15.25,49.89c0,8.48,6.83,15.35,15.25,15.35s15.26-6.88,15.26-15.35-6.83-15.36-15.26-15.36-15.25,6.88-15.25,15.36Zm27.51,42.43c0,6.82-5.5,12.34-12.27,12.34s-12.25-5.53-12.25-12.34,5.48-12.34,12.25-12.34,12.27,5.53,12.27,12.34Zm-12.27,48.32c7.81,0,7.81-11.8,0-11.8s-7.81,11.8,0,11.8ZM181.08,10.29c-8,0-8,12.08,0,12.08s8-12.08,0-12.08Zm0,64.57c-8.84,0-16.01-7.21-16.01-16.12s7.17-16.12,16.01-16.12,16.01,7.22,16.01,16.12-7.17,16.12-16.01,16.12Zm15.22,26.32c0-8.46-6.82-15.31-15.22-15.31s-15.2,6.86-15.2,15.31,6.82,15.31,15.2,15.31,15.22-6.85,15.22-15.31Zm-15.22,35.45c-9.24,0-9.24,13.97,0,13.97s9.24-13.97,0-13.97Zm13.54,49.4c0-7.53-6.06-13.63-13.54-13.63s-13.52,6.1-13.52,13.63,6.06,13.63,13.52,13.63,13.54-6.1,13.54-13.63ZM154.82,16.33C154.82,7.31,147.56,0,138.61,0c-8.94,0-16.23,7.31-16.23,16.33s7.27,16.33,16.23,16.33,16.23-7.31,16.23-16.33h-.01Zm-16.21,28.51c7.62,0,13.8,6.23,13.8,13.91s-6.18,13.91-13.8,13.91-13.81-6.23-13.81-13.91,6.18-13.91,13.81-13.91Zm15.39,56.35c0-8.56-6.89-15.5-15.39-15.5s-15.39,6.94-15.39,15.5,6.89,15.5,15.39,15.5,15.39-6.94,15.39-15.5Zm-15.39,25.65c9.19,0,16.66,7.5,16.66,16.77s-7.45,16.77-16.66,16.77-16.66-7.51-16.66-16.77,7.47-16.77,16.66-16.77Zm10.11,59.2c0-5.62-4.52-10.19-10.11-10.19s-10.11,4.57-10.11,10.19,4.52,10.17,10.11,10.17,10.11-4.55,10.11-10.17Zm-10.11,32.3c5.56,0,10.06,4.53,10.06,10.14s-4.5,10.14-10.06,10.14-10.06-4.53-10.06-10.14,4.5-10.14,10.06-10.14ZM96.15,32.08c-8.63,0-15.64-7.05-15.64-15.74S87.51,.59,96.15,.59s15.64,7.05,15.64,15.74-7,15.74-15.64,15.74Zm0,34.17c9.91,0,9.91-14.97,0-14.97s-9.91,14.97,0,14.97Zm0,47.88c-7.11,0-12.87-5.8-12.87-12.95s5.76-12.95,12.87-12.95,12.87,5.8,12.87,12.95-5.76,12.95-12.87,12.95Zm0,42.51c7.16,0,12.95-5.84,12.95-13.04s-5.79-13.03-12.95-13.03-12.95,5.84-12.95,13.03,5.79,13.04,12.95,13.04Zm0,19.41c5.47,0,9.91,4.47,9.91,9.98s-4.44,9.98-9.91,9.98-9.91-4.47-9.91-9.98,4.44-9.98,9.91-9.98Zm14.58,52.42c0-8.11-6.52-14.69-14.58-14.69s-14.58,6.57-14.58,14.69,6.52,14.69,14.58,14.69,14.58-6.57,14.58-14.69Zm-14.58,35.37c-9.35,0-9.35,14.11,0,14.11s9.35-14.11,0-14.11ZM40.42,58.77c0,7.37,5.93,13.34,13.24,13.34s13.25-5.97,13.25-13.34-5.93-13.34-13.25-13.34-13.24,5.97-13.24,13.34Zm13.24,49.39c9.22,0,9.22-13.93,0-13.93-9.22,0-9.22,13.93,0,13.93Zm8.42,35.45c0-4.67-3.77-8.46-8.42-8.46s-8.41,3.79-8.41,8.46,3.77,8.48,8.41,8.48,8.42-3.79,8.42-8.48Zm-8.42,33.1c5.11,0,9.26,4.18,9.26,9.33s-4.15,9.32-9.26,9.32-9.25-4.16-9.25-9.32,4.15-9.33,9.25-9.33Zm-14.1,51.75c0,7.84,6.31,14.19,14.1,14.19s14.1-6.35,14.1-14.19-6.31-14.19-14.1-14.19-14.1,6.35-14.1,14.19ZM11.2,112.46C5.01,112.46,0,107.41,0,101.19s5.01-11.27,11.2-11.27,11.2,5.05,11.2,11.27-5.01,11.27-11.2,11.27Zm0,23.94c-9.56,0-9.56,14.44,0,14.44s9.56-14.44,0-14.44Zm0,42.47c-9.5,0-9.5,14.35,0,14.35s9.5-14.35,0-14.35Z"/><g><path d="M374.46,209.72h22.36v-54.67h42.52c31.71,0,48.57-17.05,48.57-42.89s-16.86-41.31-48.57-41.31h-64.88V209.72Zm22.36-75.24v-43.24h37.39c20.53,0,30.61,8.09,30.61,21.62s-9.71,21.62-29.69,21.62h-38.3Z"/><path d="M505.42,209.72h20.89v-50.8c0-16.52,16.31-22.15,37.76-22.15v-19.51c-18.69,0-31.52,6.15-37.76,18.46v-17.4h-20.89v91.41Z"/><path d="M619.95,212.53c22.73,0,39.77-13.01,42.7-30.41h-21.44c-1.65,7.03-9.53,13.54-21.26,13.54-16.31,0-25.48-10.2-26.76-25.31h70.19v-7.56c0-29.88-19.43-47.29-43.44-47.29-28.59,0-48.94,20.04-48.94,48.34s20.34,48.69,48.94,48.69Zm-26.76-56.43c2.2-13.71,10.81-22.85,26.03-22.85,13.2,0,21.99,9.49,22.73,22.85h-48.75Z"/><path d="M731.28,212.53c22.91,0,39.95-14.42,42.89-33.93h-21.44c-1.47,9.32-10.08,16.17-22.18,16.17-15.39,0-26.39-12.66-26.39-30.94s11-30.59,26.39-30.59c11.73,0,20.53,7.03,22.18,16.52h21.44c-2.93-19.69-20.16-34.28-42.89-34.28-28.78,0-48.94,20.04-48.94,48.34s20.16,48.69,48.94,48.69Z"/><path d="M795.55,209.72h21.44V118.31h-21.44v91.41Z"/><path d="M883.12,212.53c26.03,0,41.97-11.07,41.97-28.48,0-39.2-61.76-19.51-61.76-40.25,0-7.74,6.96-13.18,19.06-13.18,13.2,0,21.26,6.33,21.81,16.88h20.71c-1.47-19.69-17.04-31.99-40.87-31.99-26.21,0-42.15,11.78-42.15,29.18,0,38.15,61.77,18.11,61.77,39.9,0,7.21-7.33,12.83-19.79,12.83-13.93,0-23.28-5.98-23.83-16.35h-20.89c.55,19.51,17.23,31.47,43.99,31.47Z"/><path d="M947.5,209.72h21.44V118.31h-21.44v91.41Z"/><path d="M1040.39,212.53c28.78,0,49.3-20.22,49.3-48.69s-20.53-48.34-49.3-48.34-49.3,20.04-49.3,48.34,20.53,48.69,49.3,48.69Zm0-17.76c-16.13,0-27.49-12.83-27.49-30.94s11.36-30.59,27.49-30.59,27.68,12.66,27.68,30.59-11.55,30.94-27.68,30.94Z"/><path d="M1110.19,209.72h21.63v-45.71c0-18.11,10.08-30.76,25.84-30.76,13.2,0,20.53,9.14,20.53,23.73v52.74h21.81v-53.62c0-26.72-11.73-40.61-35.19-40.61-15.58,0-26.39,7.03-32.99,17.58v-14.77h-21.63v91.41Z"/><path class="cls-1" d="M972.29,90.82c0-7.84-6.31-14.19-14.1-14.19s-14.1,6.35-14.1,14.19,6.31,14.19,14.1,14.19,14.1-6.35,14.1-14.19Z"/><path class="cls-1" d="M820.49,90.82c0-7.84-6.31-14.19-14.1-14.19s-14.1,6.35-14.1,14.19,6.31,14.19,14.1,14.19,14.1-6.35,14.1-14.19Z"/></g></svg>